<?xml version="1.0" encoding="UTF-8" standalone="no"?>
<!-- Uploaded to: SVG Repo, www.svgrepo.com, Generator: SVG Repo Mixer Tools -->

<svg
   width="800"
   height="320.54703"
   viewBox="0.1 -89.74 299.79996 120.12498"
   version="1.1"
   id="svg4"
   sodipodi:docname="ebay-logo.svg"
   inkscape:version="1.3.1 (91b66b0783, 2023-11-16)"
   xmlns:inkscape="http://www.inkscape.org/namespaces/inkscape"
   xmlns:sodipodi="http://sodipodi.sourceforge.net/DTD/sodipodi-0.dtd"
   xmlns="http://www.w3.org/2000/svg"
   xmlns:svg="http://www.w3.org/2000/svg">
  <defs
     id="defs4" />
  <sodipodi:namedview
     id="namedview4"
     pagecolor="#ffffff"
     bordercolor="#000000"
     borderopacity="0.25"
     inkscape:showpageshadow="2"
     inkscape:pageopacity="0.0"
     inkscape:pagecheckerboard="0"
     inkscape:deskcolor="#d1d1d1"
     inkscape:zoom="1.01625"
     inkscape:cx="399.508"
     inkscape:cy="240.59041"
     inkscape:window-width="1920"
     inkscape:window-height="1009"
     inkscape:window-x="1912"
     inkscape:window-y="59"
     inkscape:window-maximized="1"
     inkscape:current-layer="svg4" />
  <path
     d="M 38.867,-63.531 C 17.721,-63.531 0.1,-54.561 0.1,-27.495 0.1,-6.0530004 11.949,7.4489996 39.412,7.4489996 71.738,7.4489996 73.81,-13.845 73.81,-13.845 H 58.147 c 0,0 -3.358,11.4659996 -19.69,11.4659996 -13.302,0 -22.869,-8.9859996 -22.869,-21.5799996 h 59.861 v -7.904 c 0,-12.46 -7.91,-31.668 -36.582,-31.668 z M 38.32,-53.43 c 12.662,0 21.294,7.757 21.294,19.383 h -43.68 c 0,-12.343 11.268,-19.383 22.386,-19.383 z"
     fill="#e53238"
     id="path1" />
  <path
     d="m 75.438,-89.74 v 83.5969996 c 0,4.745 -0.339,11.408 -0.339,11.408 h 14.939 c 0,0 0.537,-4.785 0.537,-9.159 0,0 7.381,11.548 27.451,11.548 21.134,0 35.49,-14.674 35.49,-35.6949996 0,-19.557 -13.186,-35.286 -35.456,-35.286 -20.854,0 -27.334,11.261 -27.334,11.261 V -89.74 Z m 38.766,36.753 c 14.352,0 23.479,10.652 23.479,24.946 0,15.328 -10.541,25.3549996 -23.376,25.3549996 -15.318001,0 -23.581,-11.9609996 -23.581,-25.2189996 0,-12.354 7.414,-25.082 23.478,-25.082 z"
     fill="#0064d2"
     id="path2" />
  <path
     d="m 190.645,-63.531 c -31.812,0 -33.852,17.418 -33.852,20.202 h 15.834 c 0,0 0.83,-10.169 16.926,-10.169 10.459,0 18.564,4.788 18.564,13.991 v 3.276 h -18.564 c -24.645,0 -37.674,7.21 -37.674,21.841 0,14.39799961 12.038,22.2319996 28.307,22.2319996 22.172,0 29.314,-12.251 29.314,-12.251 0,4.873 0.375,9.675 0.375,9.675 h 14.076 c 0,0 -0.545,-5.95199999 -0.545,-9.76 V -37.408 c 0,-21.582 -17.408,-26.123 -32.761,-26.123 z m 17.472,37.128 v 4.368 c 0,5.697 -3.516,19.8609996 -24.212,19.8609996 -11.333,0 -16.192,-5.656 -16.192,-12.2169996 0,-11.935 16.363,-12.012 40.404,-12.012 z"
     fill="#f5af02"
     id="path3" />
  <path
     d="m 214.879,-60.799 h 17.813 L 258.257,-9.5810004 283.763,-60.799 H 299.9 L 253.441,30.385 H 236.514 L 249.92,4.9659996 Z"
     fill="#86b817"
     id="path4" />
</svg>
